<svg fill="none" height="48" viewBox="0 0 48 48" width="48" xmlns="http://www.w3.org/2000/svg"><path d="m25.4457 43.9536c-.4589 1.3952-2.4325 1.3952-2.8914 0l-2.6595-8.0867c-1.208-3.6729-4.0888-6.5537-7.7617-7.7617l-8.08672-2.6595c-1.39517-.4589-1.39517-2.4325 0-2.8914l8.08672-2.6595c3.6729-1.208 6.5537-4.0888 7.7617-7.7617l2.6595-8.08672c.4589-1.39517 2.4325-1.39517 2.8914 0l2.6595 8.08672c1.208 3.6729 4.0888 6.5537 7.7617 7.7617l8.0867 2.6595c1.3952.4589 1.3952 2.4325 0 2.8914l-8.0867 2.6595c-3.6729 1.208-6.5537 4.0888-7.7617 7.7617z" fill="#a6cfff"/></svg>